# xmcd
#
# Track frame offsets:
#	150
#	27161
#	55831
#	108429
#	132054
#	182610
#	204819
#	227990
#	242135
#
# Disc length: 3423 seconds
#
# Revision: 0
# Processed by: cddbd v1.5.2PL0 Copyright (c) Steve Scherf et al.
# Submitted via: EasyCDDAExtractor 8.2.3.1
#
DISCID=6f0d5d09
DTITLE=Luther Allison - Love Me Papa
DYEAR=1977
DGENRE=Blues
TTITLE0=Love Me Papa
TTITLE1=Blues With A Feeling
TTITLE2=Last Night I Lost The Best Friend I Ever...
TTITLE3=Key To The Highway
TTITLE4=It's Too Late
TTITLE5=Feelin' So Good
TTITLE6=Going Down
TTITLE7=Luther's Boogie
TTITLE8=Standing At The Crossroads
EXTD=
EXTT0=
EXTT1=
EXTT2=
EXTT3=
EXTT4=
EXTT5=
EXTT6=
EXTT7=
EXTT8=
PLAYORDER=
